<?xml version="1.0" encoding="UTF-8" standalone="no"?>
<!-- Uploaded to: SVG Repo, www.svgrepo.com, Generator: SVG Repo Mixer Tools -->

<svg
   fill="#000000"
   height="800px"
   width="800px"
   version="1.1"
   id="Layer_1"
   viewBox="0 0 512 512"
   xml:space="preserve"
   sodipodi:docname="oil-svgrepo-com.svg"
   inkscape:version="1.4 (e7c3feb1, 2024-10-09)"
   xmlns:inkscape="http://www.inkscape.org/namespaces/inkscape"
   xmlns:sodipodi="http://sodipodi.sourceforge.net/DTD/sodipodi-0.dtd"
   xmlns="http://www.w3.org/2000/svg"
   xmlns:svg="http://www.w3.org/2000/svg"><defs
   id="defs10" /><sodipodi:namedview
   id="namedview10"
   pagecolor="#ffffff"
   bordercolor="#000000"
   borderopacity="0.25"
   inkscape:showpageshadow="2"
   inkscape:pageopacity="0.0"
   inkscape:pagecheckerboard="0"
   inkscape:deskcolor="#d1d1d1"
   inkscape:zoom="0.33461456"
   inkscape:cx="654.48437"
   inkscape:cy="638.04755"
   inkscape:window-width="1224"
   inkscape:window-height="770"
   inkscape:window-x="217"
   inkscape:window-y="25"
   inkscape:window-maximized="0"
   inkscape:current-layer="g8" />
<g
   transform="translate(1 1)"
   id="g10">
	<g
   id="g9">
		<g
   id="g8">
			
			<path
   d="m 201.90423,168.58963 c 3.54451,0.70857 6.37963,0.70857 9.21474,0.70857 9.92415,0 19.13889,-3.54452 26.22709,-9.92415 9.92415,-8.50617 15.59437,-20.55686 15.59437,-33.31612 0,-6.37962 -2.12654,-12.75925 -5.67105,-18.43032 l -3.54452,-5.67105 C 238.7632,94.158953 233.80071,86.362182 229.54763,77.856009 l -12.75926,-25.51851 c -1.41797,-2.835114 -3.54452,-4.253086 -6.37963,-4.253086 -2.83511,0 -4.96166,2.126543 -6.37963,4.253086 l -9.92415,20.556861 c -4.96165,10.632708 -10.63271,21.973995 -18.43031,31.89814 -4.25309,5.67106 -6.37963,12.05069 -7.0882,19.13889 -1.41548,21.26626 12.76092,40.40515 33.31778,44.65824 z m -18.43032,-43.23944 c 0,-4.25308 1.41797,-7.79759 4.25309,-11.34128 7.7976,-11.34129 14.17723,-23.39198 19.84746,-34.733267 l 3.54451,-7.797594 6.37963,12.759251 c 4.25309,9.214744 9.92415,17.01235 14.8858,25.51852 l 4.25309,6.37963 c 2.83511,3.54452 3.54452,7.0882 3.54452,11.34129 0,8.50617 -4.25309,16.30377 -10.63272,21.974 -7.0882,5.67106 -15.59437,7.7976 -24.10055,5.67106 -13.46866,-2.83595 -22.6834,-15.5952 -21.97483,-29.77161 z"
   id="path2"
   style="stroke-width:0.830415;stroke-dasharray:none;fill:#ffffff" />
			
			
			
			
			
			
		<g
   id="g22"
   style="display:none"><rect
     style="opacity:1;fill:none;fill-opacity:1;stroke:#000000;stroke-width:14.5254;stroke-dasharray:none;stroke-opacity:1"
     id="rect10"
     width="116.3203"
     height="266.9646"
     x="102.92551"
     y="176.34077"
     ry="0" /><path
     style="opacity:1;fill:#000000;fill-opacity:1;stroke:none;stroke-width:0.99968;stroke-dasharray:none;stroke-opacity:1"
     id="path10"
     sodipodi:type="arc"
     sodipodi:cx="126.31114"
     sodipodi:cy="252.51865"
     sodipodi:rx="8.1042824"
     sodipodi:ry="8.1042824"
     sodipodi:start="0.006981317"
     sodipodi:end="6.2831853"
     sodipodi:open="true"
     sodipodi:arc-type="arc"
     d="m 134.41523,252.57522 a 8.1042824,8.1042824 0 0 1 -8.14652,8.0476 8.1042824,8.1042824 0 0 1 -8.0618,-8.13246 8.1042824,8.1042824 0 0 1 8.11838,-8.07598 8.1042824,8.1042824 0 0 1 8.09013,8.10427" /><path
     style="opacity:1;fill:#000000;fill-opacity:1;stroke:none;stroke-width:0.99968;stroke-dasharray:none;stroke-opacity:1"
     id="path11"
     sodipodi:type="arc"
     sodipodi:cx="161.08566"
     sodipodi:cy="223.30269"
     sodipodi:rx="8.1042824"
     sodipodi:ry="8.1042824"
     sodipodi:start="0.006981317"
     sodipodi:end="6.2831853"
     sodipodi:open="true"
     sodipodi:arc-type="arc"
     d="m 169.18975,223.35927 a 8.1042824,8.1042824 0 0 1 -8.14652,8.04759 8.1042824,8.1042824 0 0 1 -8.0618,-8.13246 8.1042824,8.1042824 0 0 1 8.11838,-8.07598 8.1042824,8.1042824 0 0 1 8.09014,8.10427" /><path
     style="opacity:1;fill:#000000;fill-opacity:1;stroke:none;stroke-width:0.99968;stroke-dasharray:none;stroke-opacity:1"
     id="path12"
     sodipodi:type="arc"
     sodipodi:cx="193.30251"
     sodipodi:cy="252.51865"
     sodipodi:rx="8.1042824"
     sodipodi:ry="8.1042824"
     sodipodi:start="0.006981317"
     sodipodi:end="6.2831853"
     sodipodi:open="true"
     sodipodi:arc-type="arc"
     d="m 201.40659,252.57522 a 8.1042824,8.1042824 0 0 1 -8.14652,8.0476 8.1042824,8.1042824 0 0 1 -8.0618,-8.13246 8.1042824,8.1042824 0 0 1 8.11838,-8.07598 8.1042824,8.1042824 0 0 1 8.09014,8.10427" /><path
     style="opacity:1;fill:#000000;fill-opacity:1;stroke:none;stroke-width:0.99968;stroke-dasharray:none;stroke-opacity:1"
     id="path13"
     sodipodi:type="arc"
     sodipodi:cx="126.31114"
     sodipodi:cy="304.9986"
     sodipodi:rx="8.1042824"
     sodipodi:ry="8.1042824"
     sodipodi:start="0.006981317"
     sodipodi:end="6.2831853"
     sodipodi:open="true"
     sodipodi:arc-type="arc"
     d="m 134.41523,305.05517 a 8.1042824,8.1042824 0 0 1 -8.14652,8.0476 8.1042824,8.1042824 0 0 1 -8.0618,-8.13246 8.1042824,8.1042824 0 0 1 8.11838,-8.07598 8.1042824,8.1042824 0 0 1 8.09013,8.10427" /><path
     style="opacity:1;fill:#000000;fill-opacity:1;stroke:none;stroke-width:0.99968;stroke-dasharray:none;stroke-opacity:1"
     id="path14"
     sodipodi:type="arc"
     sodipodi:cx="161.08566"
     sodipodi:cy="275.78265"
     sodipodi:rx="8.1042824"
     sodipodi:ry="8.1042824"
     sodipodi:start="0.006981317"
     sodipodi:end="6.2831853"
     sodipodi:open="true"
     sodipodi:arc-type="arc"
     d="m 169.18975,275.83923 a 8.1042824,8.1042824 0 0 1 -8.14652,8.0476 8.1042824,8.1042824 0 0 1 -8.0618,-8.13247 8.1042824,8.1042824 0 0 1 8.11838,-8.07598 8.1042824,8.1042824 0 0 1 8.09014,8.10427" /><path
     style="opacity:1;fill:#000000;fill-opacity:1;stroke:none;stroke-width:0.99968;stroke-dasharray:none;stroke-opacity:1"
     id="path15"
     sodipodi:type="arc"
     sodipodi:cx="193.30251"
     sodipodi:cy="304.9986"
     sodipodi:rx="8.1042824"
     sodipodi:ry="8.1042824"
     sodipodi:start="0.006981317"
     sodipodi:end="6.2831853"
     sodipodi:open="true"
     sodipodi:arc-type="arc"
     d="m 201.40659,305.05517 a 8.1042824,8.1042824 0 0 1 -8.14652,8.0476 8.1042824,8.1042824 0 0 1 -8.0618,-8.13246 8.1042824,8.1042824 0 0 1 8.11838,-8.07598 8.1042824,8.1042824 0 0 1 8.09014,8.10427" /><path
     style="opacity:1;fill:#000000;fill-opacity:1;stroke:none;stroke-width:0.99968;stroke-dasharray:none;stroke-opacity:1"
     id="path16"
     sodipodi:type="arc"
     sodipodi:cx="126.31114"
     sodipodi:cy="360.03854"
     sodipodi:rx="8.1042824"
     sodipodi:ry="8.1042824"
     sodipodi:start="0.006981317"
     sodipodi:end="6.2831853"
     sodipodi:open="true"
     sodipodi:arc-type="arc"
     d="m 134.41523,360.09512 a 8.1042824,8.1042824 0 0 1 -8.14652,8.04759 8.1042824,8.1042824 0 0 1 -8.0618,-8.13246 8.1042824,8.1042824 0 0 1 8.11838,-8.07598 8.1042824,8.1042824 0 0 1 8.09013,8.10427" /><path
     style="opacity:1;fill:#000000;fill-opacity:1;stroke:none;stroke-width:0.99968;stroke-dasharray:none;stroke-opacity:1"
     id="path17"
     sodipodi:type="arc"
     sodipodi:cx="161.08566"
     sodipodi:cy="330.8226"
     sodipodi:rx="8.1042824"
     sodipodi:ry="8.1042824"
     sodipodi:start="0.006981317"
     sodipodi:end="6.2831853"
     sodipodi:open="true"
     sodipodi:arc-type="arc"
     d="m 169.18975,330.87918 a 8.1042824,8.1042824 0 0 1 -8.14652,8.04759 8.1042824,8.1042824 0 0 1 -8.0618,-8.13246 8.1042824,8.1042824 0 0 1 8.11838,-8.07598 8.1042824,8.1042824 0 0 1 8.09014,8.10427" /><path
     style="opacity:1;fill:#000000;fill-opacity:1;stroke:none;stroke-width:0.99968;stroke-dasharray:none;stroke-opacity:1"
     id="path18"
     sodipodi:type="arc"
     sodipodi:cx="193.30251"
     sodipodi:cy="360.03854"
     sodipodi:rx="8.1042824"
     sodipodi:ry="8.1042824"
     sodipodi:start="0.006981317"
     sodipodi:end="6.2831853"
     sodipodi:open="true"
     sodipodi:arc-type="arc"
     d="m 201.40659,360.09512 a 8.1042824,8.1042824 0 0 1 -8.14652,8.04759 8.1042824,8.1042824 0 0 1 -8.0618,-8.13246 8.1042824,8.1042824 0 0 1 8.11838,-8.07598 8.1042824,8.1042824 0 0 1 8.09014,8.10427" /><path
     style="opacity:1;fill:#000000;fill-opacity:1;stroke:none;stroke-width:0.99968;stroke-dasharray:none;stroke-opacity:1"
     id="path19"
     sodipodi:type="arc"
     sodipodi:cx="126.31114"
     sodipodi:cy="413.79849"
     sodipodi:rx="8.1042824"
     sodipodi:ry="8.1042824"
     sodipodi:start="0.006981317"
     sodipodi:end="6.2831853"
     sodipodi:open="true"
     sodipodi:arc-type="arc"
     d="m 134.41523,413.85507 a 8.1042824,8.1042824 0 0 1 -8.14652,8.04759 8.1042824,8.1042824 0 0 1 -8.0618,-8.13246 8.1042824,8.1042824 0 0 1 8.11838,-8.07598 8.1042824,8.1042824 0 0 1 8.09013,8.10427" /><path
     style="opacity:1;fill:#000000;fill-opacity:1;stroke:none;stroke-width:0.99968;stroke-dasharray:none;stroke-opacity:1"
     id="path20"
     sodipodi:type="arc"
     sodipodi:cx="161.08566"
     sodipodi:cy="384.58255"
     sodipodi:rx="8.1042824"
     sodipodi:ry="8.1042824"
     sodipodi:start="0.006981317"
     sodipodi:end="6.2831853"
     sodipodi:open="true"
     sodipodi:arc-type="arc"
     d="m 169.18975,384.63913 a 8.1042824,8.1042824 0 0 1 -8.14652,8.04759 8.1042824,8.1042824 0 0 1 -8.0618,-8.13246 8.1042824,8.1042824 0 0 1 8.11838,-8.07598 8.1042824,8.1042824 0 0 1 8.09014,8.10427" /><path
     style="opacity:1;fill:#000000;fill-opacity:1;stroke:none;stroke-width:0.99968;stroke-dasharray:none;stroke-opacity:1"
     id="path21"
     sodipodi:type="arc"
     sodipodi:cx="193.30251"
     sodipodi:cy="413.79849"
     sodipodi:rx="8.1042824"
     sodipodi:ry="8.1042824"
     sodipodi:start="0.006981317"
     sodipodi:end="6.2831853"
     sodipodi:open="true"
     sodipodi:arc-type="arc"
     d="m 201.40659,413.85507 a 8.1042824,8.1042824 0 0 1 -8.14652,8.04759 8.1042824,8.1042824 0 0 1 -8.0618,-8.13246 8.1042824,8.1042824 0 0 1 8.11838,-8.07598 8.1042824,8.1042824 0 0 1 8.09014,8.10427" /><rect
     style="opacity:1;fill:#000000;fill-opacity:1;stroke:none;stroke-width:0.99968;stroke-dasharray:none;stroke-opacity:1"
     id="rect21"
     width="99.158295"
     height="12.394787"
     x="111.28439"
     y="190.78648"
     ry="5.0413599" /></g><g
   style="fill:#ffffff"
   id="g21"
   transform="matrix(8.4083158,0,0,8.4083158,120.46695,219.99862)"><path
     d="m 12,25 6.67,6.67 a 1,1 0 0 0 0.7,0.29 0.91,0.91 0 0 0 0.39,-0.08 1,1 0 0 0 0.61,-0.92 V 13.08 L 31.71,1.71 A 1,1 0 0 0 31.92,0.62 1,1 0 0 0 31,0 H 1 A 1,1 0 0 0 0.08,0.62 1,1 0 0 0 0.29,1.71 L 11.67,13.08 V 24.33 A 1,1 0 0 0 12,25 Z M 3.41,2 h 25.18 l -10,10 a 1,1 0 0 0 -0.3,0.71 V 28.59 L 13.63,23.92 V 12.67 a 1,1 0 0 0 -0.3,-0.71 z"
     id="path1"
     style="fill:#ffffff" /></g><path
   d="m 280.14261,215.37723 c 2.5812,0.516 4.6458,0.516 6.7104,0.516 7.22701,0 13.93741,-2.5812 19.09921,-7.22701 7.227,-6.1944 11.3562,-14.97001 11.3562,-24.26161 0,-4.6458 -1.5486,-9.29161 -4.1298,-13.42141 l -2.5812,-4.12981 c -3.6132,-5.6784 -7.22701,-11.3562 -10.32421,-17.55061 l -9.29161,-18.5832 c -1.0326,-2.0646 -2.5812,-3.0972 -4.6458,-3.0972 -2.0646,0 -3.6132,1.5486 -4.6458,3.0972 l -7.22701,14.97001 c -3.6132,7.743 -7.743,16.002 -13.4214,23.22901 -3.09721,4.1298 -4.64581,8.77561 -5.16181,13.93741 -1.03078,15.48661 9.29282,29.42402 24.26283,32.52122 z M 266.7212,183.88921 c 0,-3.0972 1.0326,-5.6784 3.0972,-8.259 5.67841,-8.259 10.32421,-17.03461 14.45341,-25.29361 l 2.5812,-5.6784 4.6458,9.2916 c 3.0972,6.7104 7.22701,12.3888 10.84021,18.58321 l 3.0972,4.6458 c 2.0646,2.5812 2.5812,5.1618 2.5812,8.259 0,6.19441 -3.0972,11.87282 -7.743,16.00201 -5.1618,4.12981 -11.3562,5.67841 -17.55061,4.12981 -9.80821,-2.06521 -16.51861,-11.35681 -16.00261,-21.68042 z"
   id="path22"
   style="stroke-width:0.604729;stroke-dasharray:none;fill:#ffffff" /></g>
	</g>
</g>
</svg>
