<?xml version="1.0" encoding="UTF-8" standalone="no"?>
<!-- Created with Inkscape (http://www.inkscape.org/) -->

<svg
   width="210mm"
   height="148mm"
   viewBox="0 0 210 148"
   version="1.1"
   id="svg1"
   xml:space="preserve"
   xmlns="http://www.w3.org/2000/svg"
   xmlns:svg="http://www.w3.org/2000/svg"><defs
     id="defs1" /><g
     id="layer1"><g
       id="g5"
       transform="translate(0,-74.500002)"><path
         id="rect5"
         style="fill:#3656a2;fill-opacity:1;stroke:none;stroke-width:2.58075;stroke-dasharray:none;stroke-opacity:1"
         d="m 130.32365,88.957233 c -3.47691,-0.141948 -11.39427,0.190959 -12.6588,0.532162 -1.73614,0.468454 -3.05593,0.769637 -4.10881,0.937638 -1.69812,0.270953 -3.64547,0.782526 -4.99695,1.312694 -0.67181,0.263547 -1.54264,0.575005 -1.93521,0.69199 -0.39257,0.116986 -0.77322,0.308736 -0.84592,0.426366 -0.0727,0.11763 -0.36786,0.21386 -0.65613,0.21386 -0.28826,0 -0.80705,0.13837 -1.15286,0.3074 -5.892636,2.88032 -7.933772,3.97891 -9.536218,5.13363 -0.508527,0.36645 -1.145058,0.81617 -1.414404,0.99939 -4.106928,2.793777 -9.961081,8.206397 -12.296007,11.368367 -0.69346,0.93908 -1.386427,1.83851 -1.539719,1.99877 -0.472387,0.49386 -1.63348,2.04953 -1.792184,2.40108 -0.08268,0.18322 -0.346695,0.63296 -0.586201,0.9994 -0.239506,0.36644 -0.649781,1.06611 -0.911755,1.5547 -0.261973,0.4886 -0.605865,1.03822 -0.764183,1.22144 -0.628429,0.72731 -1.659146,3.02669 -1.659146,3.70106 0,0.39315 -0.09989,0.77633 -0.222038,0.85182 -0.480322,0.29686 -0.01063,3.39609 0.751925,4.96108 0.737885,1.51441 2.700952,3.19835 4.396238,3.77099 2.20122,0.74353 4.118764,0.66923 5.905985,-0.22885 2.346832,-1.17928 3.052786,-2.00943 6.157537,-7.24047 0.477791,-0.80501 1.792264,-2.6485 2.642187,-3.70561 1.473291,-1.83245 5.919077,-6.1679 7.462963,-7.27771 0.79398,-0.57074 1.84347,-1.3241 2.33207,-1.67413 1.50323,-1.07693 6.30987,-3.63074 7.61462,-4.04569 0.87955,-0.27971 2.53262,-0.86624 3.0454,-1.08066 1.1795,-0.49322 2.73568,-0.91502 3.37277,-0.91403 0.38903,6e-4 0.98836,-0.1124 1.33222,-0.2511 0.88605,-0.35739 6.92857,-1.05651 9.17569,-1.0616 1.03827,-0.003 2.5872,0.0964 3.44225,0.21932 0.85503,0.1229 2.20421,0.30897 2.99817,0.41365 1.918,0.25284 4.37106,0.85339 7.10698,1.73951 0.93515,0.30287 1.32112,0.4557 3.16482,1.25231 1.30713,0.56476 4.04047,1.93656 4.71907,2.36838 0.36644,0.23318 0.81662,0.49442 0.99985,0.58075 0.18322,0.0863 0.93261,0.59471 1.6655,1.1297 0.73289,0.53499 1.57091,1.13995 1.8621,1.34448 1.15156,0.80886 3.73938,3.10103 4.79581,4.24775 0.61342,0.66586 1.32352,1.41523 1.57832,1.6655 0.50754,0.49851 3.46178,4.47298 3.7224,5.00785 0.17999,0.36939 0.43636,0.79368 1.27546,2.11004 0.31146,0.48859 0.78933,1.33786 1.0616,1.88752 0.27227,0.54967 0.57329,1.14946 0.66883,1.33268 0.63302,1.21388 0.91494,1.84194 0.91494,2.03874 0,0.12432 0.13338,0.54092 0.2965,0.92583 0.54212,1.27919 0.85943,2.24525 1.033,3.14302 0.0944,0.4886 0.2902,1.2039 0.43499,1.58968 0.14478,0.38577 0.23155,1.08545 0.19297,1.55471 l -0.0699,0.85318 -69.624547,0.12032 c -76.301181,0.13191 -70.462985,0.0167 -72.726248,1.43621 -1.151507,0.72221 -2.598254,2.63638 -3.128484,4.13922 -0.421187,1.19377 -0.410204,3.68834 0.02179,4.96063 0.579971,1.70826 2.207626,3.8634 2.932331,3.88269 0.152685,0.004 0.278475,0.0828 0.279248,0.17436 0.0026,0.34077 1.481718,1.02589 2.66353,1.23415 0.676694,0.11924 9.421672,0.27577 19.607322,0.35098 20.305786,0.14993 18.798473,0.0233 18.815888,1.57923 0.0044,0.42752 0.113559,1.17736 0.242011,1.66596 0.128443,0.48859 0.308244,1.28815 0.399581,1.77674 0.16257,0.86971 0.273871,1.2679 0.998479,3.58301 0.196285,0.62714 0.356896,1.31114 0.356896,1.5202 0,0.20906 0.144092,0.64566 0.320114,0.96987 0.176014,0.32421 0.532216,1.23397 0.791879,2.02148 0.888602,2.69492 2.782395,6.48788 5.076868,10.16827 0.62691,1.00559 1.139698,1.88411 1.139698,1.95247 0,0.13103 0.299422,0.52162 0.944001,1.23187 0.213762,0.23554 0.388678,0.48233 0.388678,0.54851 0,0.0662 0.210694,0.34145 0.468134,0.61117 0.25744,0.26974 0.696016,0.83978 0.974421,1.26729 0.789822,1.21285 4.420946,5.07175 6.944882,7.38032 2.249152,2.05725 8.466131,6.61161 9.025392,6.61161 0.08907,0 0.479785,0.23729 0.868621,0.52762 1.073507,0.80156 5.366295,2.92148 7.702715,3.80367 0.54967,0.20754 1.32794,0.51702 1.72907,0.68791 0.40113,0.17089 0.86744,0.31058 1.03662,0.31058 0.16918,0 0.59093,0.14299 0.93674,0.31739 0.3458,0.1744 1.27791,0.47876 2.07188,0.67655 0.79397,0.19778 1.90676,0.50497 2.47282,0.68245 0.56606,0.17749 1.33419,0.32239 1.70682,0.32239 0.37264,0 0.95885,0.1088 1.30271,0.24156 0.34387,0.13275 1.47497,0.33616 2.51323,0.45225 1.03827,0.1161 2.38743,0.2942 2.99818,0.39548 1.87163,0.31037 7.64228,0.26159 10.44615,-0.0881 1.461,-0.18223 3.08815,-0.33186 3.61525,-0.33283 0.52716,-8.8e-4 1.16969,-0.1149 1.42757,-0.25292 0.25788,-0.13801 1.02562,-0.32402 1.70637,-0.41319 1.83419,-0.24027 6.25632,-1.4012 6.79004,-1.78265 0.12215,-0.0873 0.47198,-0.21188 0.77736,-0.27697 1.29591,-0.27622 4.81654,-1.71991 6.99165,-2.86695 0.85734,-0.45212 2.13325,-1.0915 2.83561,-1.42122 0.70236,-0.32973 1.27683,-0.68597 1.27683,-0.79143 0,-0.10547 0.097,-0.19161 0.21567,-0.19161 0.31709,0 5.74213,-3.70466 6.79414,-4.63961 4.3611,-3.8758 5.58734,-5.05773 7.05477,-6.79823 0.30896,-0.36644 1.1258,-1.32691 1.81488,-2.13454 1.33807,-1.56826 3.88678,-5.20408 3.88678,-5.54455 0,-0.11279 0.0814,-0.20478 0.18116,-0.20478 0.46823,0 2.04848,-3.74887 2.1064,-4.99696 0.0455,-0.9804 -0.30825,-3.10197 -0.62206,-3.73103 -0.1833,-0.36743 -0.33329,-0.78973 -0.33329,-0.93855 0,-0.37307 -2.28889,-2.56591 -3.16799,-3.03495 -0.39518,-0.21084 -0.89666,-0.38765 -1.11472,-0.39276 -0.21806,-0.005 -0.64704,-0.17318 -0.95308,-0.3737 -0.43739,-0.28659 -0.88252,-0.33707 -2.08141,-0.23656 -0.83885,0.0703 -1.70932,0.22728 -1.93431,0.34872 -0.22499,0.12145 -0.8593,0.42445 -1.40942,0.67383 -1.36038,0.61669 -3.39353,2.87014 -4.99604,5.53683 -0.67435,1.12218 -5.02613,6.27853 -5.94277,7.0416 -0.15177,0.12635 -1.18478,1.00093 -2.29574,1.94338 -1.11096,0.94246 -2.09126,1.71363 -2.17858,1.71363 -0.0873,0 -0.62767,0.34802 -1.20055,0.77373 -1.80179,1.33892 -2.16023,1.57637 -2.81836,1.86529 -0.24429,0.10724 -1.49358,0.71621 -2.77614,1.35355 -1.28256,0.63735 -2.63172,1.24148 -2.99817,1.34222 -0.36643,0.10074 -1.36578,0.42839 -2.22082,0.72831 -0.85505,0.29992 -2.25391,0.70254 -3.10896,0.8945 -0.85504,0.19196 -2.05461,0.46484 -2.66535,0.60663 -2.55513,0.59318 -12.64839,0.72752 -14.43555,0.19207 -0.36644,-0.10979 -1.26589,-0.29009 -1.99878,-0.40048 -0.73289,-0.11041 -1.63234,-0.30578 -1.99879,-0.43409 -0.36644,-0.12831 -1.31605,-0.40426 -2.11002,-0.61344 -0.79396,-0.20918 -1.64324,-0.49965 -1.88754,-0.64522 -0.24429,-0.14558 -0.69402,-0.31975 -0.99939,-0.38731 -0.71358,-0.15787 -2.07696,-0.6836 -2.22081,-0.85637 -0.0611,-0.0734 -0.96098,-0.55539 -1.99924,-1.07113 -2.68857,-1.33549 -3.1025,-1.59336 -6.14347,-3.82456 -3.941459,-2.89191 -8.625257,-8.08161 -11.195806,-12.40498 -1.095659,-1.84278 -2.812823,-5.27128 -3.098073,-6.18569 -0.100888,-0.3234 -0.400231,-1.13764 -0.665201,-1.80944 -0.264979,-0.67182 -0.569296,-1.64772 -0.676554,-2.1686 -0.107259,-0.52087 -0.284002,-1.12067 -0.392763,-1.33268 -0.387025,-0.75441 -0.494143,-2.20799 -0.18162,-2.46737 0.214104,-0.17768 13.362091,-0.26635 47.359147,-0.31966 32.23842,-0.0505 47.45431,-0.14854 48.30723,-0.31149 1.22421,-0.23388 3.43746,-1.51921 4.19599,-2.43649 1.65045,-1.99585 1.96864,-3.20474 1.97472,-7.50928 0.003,-1.95438 -0.094,-4.00322 -0.21477,-4.55289 -0.12081,-0.54967 -0.31171,-1.74878 -0.4241,-2.66489 -0.38696,-3.15401 -2.24732,-10.08529 -3.11396,-11.60129 -0.12126,-0.2121 -0.22067,-0.54627 -0.22067,-0.74284 0,-0.19657 -0.14234,-0.62296 -0.31648,-0.94718 -0.17415,-0.32422 -0.77652,-1.58871 -1.33858,-2.81019 -0.56204,-1.22149 -1.1139,-2.37088 -1.22642,-2.5541 -0.11252,-0.18322 -0.41567,-0.72195 -0.67337,-1.19736 -0.25771,-0.4754 -0.91224,-1.54447 -1.45482,-2.37566 -0.54259,-0.83119 -0.98667,-1.56775 -0.98667,-1.63643 0,-0.20635 -2.84944,-3.89628 -4.29498,-5.56182 -1.32361,-1.52503 -3.89343,-4.12085 -6.05266,-6.1144 -1.56782,-1.44752 -7.37697,-5.767497 -7.75583,-5.767497 -0.0641,0 -0.53945,-0.26872 -1.05615,-0.5971 -1.32609,-0.84275 -6.3742,-3.40047 -6.71149,-3.40047 -0.15438,0 -0.40507,-0.14961 -0.55713,-0.33283 -0.15206,-0.18322 -0.4742,-0.33328 -0.71561,-0.33328 -0.24143,0 -0.75388,-0.13338 -1.13879,-0.2965 -4.81389,-2.040144 -12.0276,-3.577974 -17.91185,-3.81821 z" /><g
         id="g2"
         transform="matrix(1.0145672,0,0,1.0145672,-20.266822,-0.52385085)"
         style="fill:#e03744;fill-opacity:1"><path
           style="fill:none;fill-opacity:1;stroke:#e03744;stroke-width:2.25;stroke-linecap:round;stroke-dasharray:none;stroke-opacity:1"
           id="circle1"
           d="M -101.10215,142.79301 A 49.567745,49.567745 0 0 1 -138.49878,190.84325 49.567745,49.567745 0 0 1 -194.26053,166.39"
           transform="matrix(-0.99915358,-0.04113538,-0.04113538,0.99915358,0,0)" /><path
           style="display:inline;fill:none;fill-opacity:1;stroke:#e03744;stroke-width:2.25;stroke-linecap:round;stroke-dasharray:none;stroke-opacity:1"
           id="path2"
           d="M 193.31419,-146.70192 A 49.567745,49.567745 0 0 1 155.672,-98.59015 49.567745,49.567745 0 0 1 99.917067,-123.55139"
           transform="scale(1,-1)" /><rect
           style="fill:#e03744;fill-opacity:1;stroke:none;stroke-width:0.873422;stroke-dasharray:none;stroke-opacity:1"
           id="rect2"
           width="140.40105"
           height="2.329406"
           x="53.972504"
           y="145.58359"
           ry="1.164703" /></g></g></g></svg>
